<?xml version="1.0" standalone="no"?>
<!DOCTYPE svg PUBLIC "-//W3C//DTD SVG 20010904//EN"
 "http://www.w3.org/TR/2001/REC-SVG-20010904/DTD/svg10.dtd">
<svg version="1.0" xmlns="http://www.w3.org/2000/svg"
 width="702.000000pt" height="702.000000pt" viewBox="0 0 702.000000 702.000000"
 preserveAspectRatio="xMidYMid meet">

<g transform="translate(0,702) scale(0.1,-0.1)" fill="#ffffff" stroke="none">
<path d="M1270 6179 l0 -765 428 -320 c639 -480 1489 -1114 1744 -1302 31 -23
63 -42 70 -42 26 0 2086 1522 2220 1640 l28 25 -2 763 -3 763 -130 -122 c-664
-624 -1124 -1041 -1139 -1032 -11 7 -660 464 -865 609 -57 41 -108 74 -113 74
-9 0 -303 -207 -841 -593 -76 -54 -144 -96 -150 -94 -7 3 -91 79 -188 169 -96
90 -263 244 -369 343 -196 181 -526 491 -632 594 l-58 55 0 -765z"/>
<path d="M5655 4998 c-420 -330 -1276 -973 -1802 -1356 -100 -73 -185 -137
-188 -141 -2 -5 -5 -214 -5 -465 l-1 -457 -74 -149 -74 -150 -75 144 -76 143
0 465 0 464 -42 31 c-306 218 -1392 1033 -1768 1326 l-275 214 -3 -1461 -2
-1461 87 -85 c49 -47 259 -247 468 -445 209 -198 447 -424 530 -503 l150 -143
3 1008 c2 797 -1 1010 -10 1020 -7 7 -166 113 -353 235 l-340 224 -3 242 c-1
133 0 242 3 242 4 0 81 -53 173 -119 221 -157 664 -469 780 -549 l92 -65 0
-1261 1 -1261 177 -166 c390 -366 473 -440 487 -437 7 2 145 127 306 278 160
151 303 285 316 297 l23 22 0 1261 c0 693 2 1265 5 1270 5 8 168 122 780 545
110 76 217 151 238 167 l37 30 0 -245 0 -246 -127 -83 c-337 -219 -574 -379
-578 -391 -3 -6 -4 -463 -3 -1014 l3 -1003 511 483 c281 265 561 530 622 588
l112 105 -2 1465 -3 1465 -100 -78z"/>
</g>
</svg>

